<svg xmlns="http://www.w3.org/2000/svg" xmlns:xlink="http://www.w3.org/1999/xlink" viewBox="0 0 270.933 270.933">
  <defs>
    <linearGradient id="c">
      <stop offset="0" stop-color="#995627"/>
      <stop offset="1" stop-color="#402411"/>
    </linearGradient>
    <linearGradient xlink:href="#a" id="d" x1="-522.858" x2="-297.787" y1="593.572" y2="928.37" gradientTransform="translate(1696.357 -511.78) scale(.26458)" gradientUnits="userSpaceOnUse"/>
    <linearGradient id="a">
      <stop offset="0" stop-color="#252525"/>
      <stop offset="1"/>
    </linearGradient>
    <linearGradient xlink:href="#b" id="e" x1="-5.05" x2="-3.003" y1="111.98" y2="114.972" gradientTransform="translate(1696.357 -511.78)" gradientUnits="userSpaceOnUse"/>
    <linearGradient id="b">
      <stop offset="0" stop-color="#fff"/>
      <stop offset="1"/>
    </linearGradient>
    <linearGradient xlink:href="#c" id="f" x1="-81.219" x2="-48.238" y1="176.016" y2="217.442" gradientTransform="translate(1696.357 -511.78)" gradientUnits="userSpaceOnUse"/>
    <linearGradient xlink:href="#c" id="g" x1="-235.479" x2="-138.606" y1="373.629" y2="364.145" gradientTransform="translate(1696.357 -511.78)" gradientUnits="userSpaceOnUse"/>
    <linearGradient xlink:href="#a" id="h" x1="936.343" x2="919.068" y1="129.419" y2="158.957" gradientUnits="userSpaceOnUse"/>
    <linearGradient xlink:href="#b" id="i" x1="840.683" x2="838.418" y1="92.955" y2="96.533" gradientUnits="userSpaceOnUse"/>
    <linearGradient xlink:href="#c" id="j" x1="939.831" x2="893.962" y1="149.638" y2="213.931" gradientUnits="userSpaceOnUse"/>
    <linearGradient xlink:href="#a" id="k" x1="1178.428" x2="1144.323" y1="405.747" y2="391.006" gradientUnits="userSpaceOnUse"/>
    <linearGradient xlink:href="#c" id="l" x1="1133.684" x2="1121.682" y1="291.127" y2="316.83" gradientUnits="userSpaceOnUse"/>
  </defs>
  <g transform="translate(-28.867 -35.825)">
    <path fill="#e92b24" stroke="#000" stroke-width="1.773" d="M298.914 171.292a134.58 134.58 0 0 1-134.58 134.58 134.58 134.58 0 0 1-134.58-134.58 134.58 134.58 0 0 1 134.58-134.58 134.58 134.58 0 0 1 134.58 134.58"/>
    <ellipse cx="164.334" cy="171.292" fill="#fce432" stroke="#000" stroke-width="1.773" rx="122.071" ry="121.162"/>
    <ellipse cx="164.334" cy="171.292" fill="#f2f2f2" stroke="#000" stroke-width="1.773" rx="79.026" ry="78.438"/>
    <ellipse cx="164.334" cy="171.292" fill="none" stroke="#000" stroke-width="1.773" rx="58.177" ry="57.744"/>
    <ellipse cx="164.334" cy="171.292" fill="none" stroke="#000" stroke-width="1.773" rx="44.389" ry="44.059"/>
    <ellipse cx="164.334" cy="171.292" fill="none" stroke="#000" stroke-width="1.773" rx="29.929" ry="29.706"/>
    <ellipse cx="164.334" cy="171.292" fill="none" stroke="#000" stroke-width="1.773" rx="17.487" ry="17.357"/>
    <ellipse cx="-145.852" cy="-187.059" fill="none" rx="61.585" ry="61.136" transform="rotate(174.186) skewX(.087)"/>
    <g style="line-height:1.25">
      <path fill="#e92b24" d="M92.653 156.524q.277.039.474.095.188.046.306.111.108.064.154.149.048.075.036.16l-.433 3.096 9.964 1.395q.095.013.162.09.069.069.097.219.027.15.021.402-.005.243-.055.606-.051.363-.115.607-.062.235-.13.372-.067.136-.153.193-.085.046-.18.033l-9.964-1.395-.434 3.095q-.013.095-.08.154-.066.06-.188.09-.13.031-.326.033-.203-.009-.48-.048-.286-.04-.484-.087-.197-.057-.305-.12-.117-.066-.156-.14-.048-.074-.034-.17l1.22-8.712q.011-.086.078-.145.059-.07.19-.1.12-.032.324-.023.205 0 .491.04zm12.174-2.391q.093.025.15.11.06.077.068.23.01.151-.026.392-.035.24-.133.603-.096.354-.19.589-.09.225-.175.352-.084.127-.176.172-.09.036-.183.01l-11.378-3.078q-.094-.025-.153-.101-.057-.086-.066-.238-.006-.162.03-.402.034-.24.13-.594.098-.363.19-.588.09-.226.174-.353.085-.127.174-.163.093-.045.186-.02zm4.345-11.228q.098.042.154.107.047.062.035.214-.012.152-.103.417-.091.266-.279.71-.157.373-.269.588-.112.214-.212.329-.106.102-.2.125-.102.02-.224.01l-3.003-.054q-.515.003-.927.038-.413.035-.73.163-.32.116-.556.352-.235.235-.393.608l-.308.73 4.381 1.85q.089.037.134.13.048.083.036.235-.012.152-.079.385-.067.234-.213.58-.143.338-.267.558-.12.21-.221.325-.101.114-.195.138-.093.023-.182-.014l-10.441-4.41q-.391-.166-.478-.432-.091-.28.033-.573l1.257-2.977q.192-.453.333-.739.142-.286.27-.514.39-.652.863-1.102.476-.458 1.029-.675.547-.23 1.167-.209.61.017 1.294.306.578.244.994.598.41.34.664.783.253.442.352.976.1.534.043 1.138.233-.205.505-.352.275-.156.615-.243.335-.099.74-.138.394-.042.874-.038l2.675-.012q.394.009.573.032.17.02.259.057zm-9.075-.283q-.568-.24-1.068-.147-.5.092-.908.611-.12.16-.243.379-.12.21-.29.61l-.443 1.05 3.262 1.377.502-1.19q.21-.499.253-.92.033-.426-.075-.765-.117-.343-.367-.595-.25-.252-.623-.41zm16.406-13.036q.192.146.319.266.124.107.207.206.075.093.115.184.04.09.068.245.02.149-.028.5-.043.343-.18.795-.14.44-.4.957-.253.51-.65 1.032-.775 1.022-1.714 1.606-.939.583-1.999.687-1.067.098-2.238-.306-1.17-.404-2.415-1.349-1.268-.962-1.995-2.046-.727-1.085-.935-2.199-.208-1.114.087-2.222.302-1.115 1.077-2.137.315-.415.676-.747.36-.332.72-.567.359-.249.703-.4.345-.15.528-.168.181-.032.28-.018.098.014.223.073.125.058.277.161.158.096.373.259.23.175.38.313t.22.252q.071.114.077.203.005.089-.048.158-.087.115-.352.193-.272.071-.65.233-.378.149-.806.441-.43.28-.838.818-.45.591-.56 1.247-.11.642.092 1.316.2.66.71 1.314.51.653 1.309 1.26.876.664 1.656.977.777.3 1.443.284.672-.023 1.235-.334.561-.325 1.01-.917.408-.538.583-1.023.166-.491.223-.884.062-.401.073-.671.017-.278.093-.378.058-.077.124-.1.065-.022.18.017.116.039.297.152.173.107.45.317zm7.013-5.673q.202.208.323.373.12.151.18.282.053.123.038.219-.008.088-.077.156l-4.096 3.993q-.228.222-.515.245-.286.01-.582-.294l-7.912-8.116q-.068-.069-.08-.164-.006-.103.064-.238.07-.136.223-.325.16-.196.422-.452.269-.262.462-.41.193-.147.33-.214.137-.066.233-.051.102.008.17.077l7.009 7.19 2.811-2.74q.07-.068.158-.073.089-.02.21.036.116.05.271.181.156.118.358.325zm7.27-9.586q.652.945.889 1.883.237.938.053 1.827-.184.888-.792 1.706-.608.818-1.64 1.53-.97.668-1.904.961-.94.285-1.811.16-.872-.126-1.662-.66-.787-.546-1.466-1.53l-4.31-6.25q-.055-.08-.051-.176.004-.096.095-.218.1-.127.282-.288.182-.16.492-.374.302-.208.517-.322.215-.113.361-.155.147-.043.238-.012.1.025.154.105l4.184 6.066q.422.612.885.96.458.341.938.443.489.097.982-.02.496-.132.98-.466.492-.34.777-.759.285-.419.358-.89.068-.48-.08-1-.145-.533-.517-1.073l-4.267-6.186q-.054-.08-.05-.176.004-.096.095-.218.092-.122.274-.283.19-.166.492-.374t.509-.316q.214-.113.361-.155.146-.043.238-.012.091.03.146.11zm11.874-4.442q.265.61.312 1.18.046.568-.09 1.079-.127.507-.425.961-.288.451-.707.843-.42.392-.947.725-.524.322-1.214.62l-3.045 1.32q-.292.126-.569.046-.271-.093-.44-.483l-4.323-9.985q-.17-.39-.047-.642.127-.265.419-.391l2.877-1.246q1.053-.456 1.856-.594.811-.14 1.464.007.658.136 1.161.57.503.434.825 1.177.18.416.235.834.051.409-.022.798-.073.39-.275.75-.192.356-.511.663.525-.122 1.028-.077.512.04.966.264.46.212.84.604.38.393.633.977zm-5.098-3.521q-.15-.345-.375-.574-.225-.228-.514-.313-.293-.094-.662-.05-.361.04-.901.275l-1.178.51 1.288 2.974 1.302-.564q.504-.218.755-.464.248-.254.354-.542.112-.3.09-.617-.025-.325-.16-.635zm2.716 4.647q-.172-.398-.439-.65-.27-.262-.62-.363-.348-.101-.796-.044-.448.057-1.086.333l-1.38.598 1.41 3.258 1.682-.728q.487-.211.772-.45.29-.252.445-.55.16-.311.166-.661.011-.362-.154-.743zm19.494-7.342q.25 1.699-.02 2.977-.262 1.267-.98 2.153-.718.885-1.858 1.423-1.131.528-2.772.77l-2.95.433q-.314.047-.56-.102-.239-.16-.3-.58l-1.585-10.765q-.062-.42.122-.632.191-.224.506-.27l3.168-.466q1.651-.243 2.854-.02 1.211.211 2.106.86.903.637 1.478 1.693t.79 2.526zm-2.583.468q-.13-.878-.45-1.601-.312-.725-.851-1.21-.53-.488-1.291-.688-.753-.211-1.907-.041l-1.27.187 1.236 8.398 1.308-.193q1.03-.151 1.697-.522.667-.372 1.056-.975.397-.614.508-1.45.121-.836-.036-1.905zm13.065 5.174q-.009.28-.043.472-.025.182-.077.296-.052.115-.13.17-.07.046-.156.044l-6.267-.19q-.319-.01-.535-.2-.206-.2-.193-.624l.33-10.876q.013-.424.231-.601.228-.186.546-.176l6.228.189q.087.003.153.053.066.05.11.177.045.117.059.31.023.185.014.474-.008.27-.043.462-.024.182-.076.297-.052.114-.121.17-.07.046-.156.043l-4.455-.135-.092 3.047 3.77.114q.087.003.152.063.076.05.12.167.046.108.06.301.022.184.014.454-.008.28-.043.462-.025.183-.076.297-.052.105-.13.15-.07.047-.156.044l-3.77-.114-.107 3.519 4.493.136q.087.003.153.063.075.05.12.168.045.117.058.31.023.184.015.464zm14.733.275q-.249.952-.79 1.579-.543.626-1.276.953-.73.318-1.606.35-.875.03-1.8-.21-.625-.164-1.14-.407-.505-.242-.88-.489-.37-.256-.61-.488-.229-.23-.319-.382-.09-.153-.087-.392.014-.245.126-.675.076-.289.145-.48.07-.191.14-.303.077-.11.155-.139.09-.036.182-.012.131.034.323.254.204.212.529.496.324.284.796.577.484.285 1.166.463.448.117.83.107.383-.02.677-.153.303-.13.509-.385.206-.256.299-.61.107-.411-.042-.759-.146-.357-.452-.676-.294-.326-.7-.641-.404-.325-.83-.675-.428-.35-.812-.75-.382-.408-.644-.895-.25-.494-.333-1.094-.083-.6.114-1.356.226-.868.714-1.439.5-.577 1.153-.866.665-.295 1.458-.317.803-.02 1.634.196.43.112.842.29.412.177.756.386.344.21.597.425t.322.333q.07.118.08.19.02.075.01.192.001.11-.033.28-.032.162-.095.404-.071.271-.138.453-.058.184-.127.296-.06.114-.14.153-.07.041-.173.015-.103-.027-.293-.216-.19-.19-.477-.424-.286-.244-.684-.477-.395-.243-.908-.376-.402-.105-.727-.08-.323.015-.575.14-.24.116-.406.332-.156.218-.227.489-.104.401.033.756.148.348.451.676.315.321.729.648.415.318.842.669.427.35.818.761.394.402.654.898.261.487.344 1.087.086.59-.104 1.318zm10.397 7.53q-.038.364-.095.56-.058.196-.198.25-.137.043-.39-.05-.259-.086-.689-.281-.448-.203-.695-.337-.242-.12-.358-.215-.111-.104-.132-.198-.021-.094-.004-.224l.272-2.63-4.27-1.938-1.728 1.896q-.091.107-.193.167-.088.055-.244.048-.143-.012-.388-.102-.236-.086-.614-.257-.404-.183-.62-.313-.217-.13-.261-.267-.04-.145.07-.318.11-.172.355-.432l8.08-8.494q.12-.126.23-.182.115-.065.284-.04.182.018.458.133.28.106.729.31.518.234.817.391.304.149.447.277.156.124.182.252.035.133.012.324zm-1.436-10.704-.01-.004-3.799 4.102 3.224 1.463zm4.775 13.731q-.052.082-.15.11-.09.035-.239-.003-.148-.036-.367-.141-.219-.105-.537-.306-.31-.197-.505-.355-.189-.154-.285-.272-.096-.119-.112-.22-.008-.096.044-.178l6.315-9.953q.051-.082.141-.116.099-.029.247.008.156.042.375.147.22.104.529.3.318.202.506.356.188.154.284.272.096.118.104.214.016.102-.036.183zm10.556 7.765q-.145.168-.317.248-.172.081-.35.08-.17.006-.347-.07-.163-.077-.301-.197l-.818-.707q-.255-.22-.4-.436-.139-.209-.186-.479-.033-.271.017-.623.056-.36.189-.883l1.468-6.446q.137-.57.316-1.206.186-.642.39-1.218l-.014-.012q-.425.55-.865 1.088-.433.53-.913 1.085l-4.272 4.94q-.063.073-.157.093-.087.027-.227-.018-.126-.045-.313-.169-.187-.123-.45-.35-.255-.22-.404-.388-.149-.167-.212-.285-.057-.126-.043-.216.014-.09.077-.163l7.339-8.485q.296-.343.639-.34.355.001.647.253l1.029.89q.277.24.423.455.152.208.203.444.058.242.02.552-.033.303-.14.708l-1.147 5.041q-.11.453-.223.892-.098.437-.217.87-.113.425-.227.837-.113.412-.234.817l.007.006q.42-.53.884-1.096.473-.561.908-1.065l3.83-4.428q.063-.073.158-.094.094-.02.234.024.14.045.32.175.187.124.45.35.248.215.397.382.155.16.205.28.057.125.043.215-.014.09-.077.163zm15.329 2.112q-.219.175-.395.278-.163.105-.291.146-.12.034-.214.01-.088-.017-.142-.085l-1.947-2.445-7.87 6.268q-.075.06-.178.056-.096.003-.224-.08-.128-.084-.307-.262-.173-.17-.401-.457-.228-.287-.362-.501-.128-.207-.18-.35-.052-.143-.034-.244.024-.094.1-.154l7.87-6.268-1.947-2.444q-.06-.076-.057-.165.003-.089.064-.199.068-.115.2-.258.147-.141.366-.316.226-.18.397-.291.176-.104.297-.138.128-.04.208-.018.087.017.147.093l5.48 6.881q.055.068.052.157.01.09-.058.206-.06.11-.207.251-.14.15-.367.33zm-1.954 17.986q-.259.13-.453.194-.18.069-.323.086-.134.013-.22-.03-.082-.034-.125-.12l-2.56-5.116q-.143-.285-.078-.565.078-.276.457-.466l10.136-5.072q.087-.044.181-.026.1.025.208.133.107.108.241.31.138.212.302.54.169.336.25.565.083.229.104.38.022.15-.021.237-.039.095-.125.138l-8.98 4.494 1.757 3.51q.043.087.021.173-.009.09-.099.19-.082.095-.254.203-.16.112-.419.242zm4.996 3.587-4.16 1.398q-.092.03-.187-.01-.092-.03-.183-.151-.092-.122-.2-.35-.104-.22-.22-.568-.12-.356-.17-.594-.05-.238-.053-.4 0-.152.055-.231.054-.08.146-.11l4.16-1.399 5.36-5.403q.279-.287.443-.403.177-.11.302-.04.138.075.251.352.123.275.292.778.141.42.206.673.068.262.062.427.003.162-.057.253-.058.101-.164.208l-2.466 2.294q-.356.333-.76.673-.403.349-.85.713l.006.018q.552.008 1.08.034.528.026 1.007.059l3.325.327q.162-.003.266.033.116.042.217.161.1.119.199.35.098.232.23.625.175.522.243.814.08.299.013.433-.054.14-.265.15-.21.01-.595-.044zm-.903 13.682q-.276.044-.47.047-.185.01-.307-.02-.122-.028-.191-.095-.059-.06-.073-.145l-1.002-6.19q-.05-.314.095-.562.157-.24.576-.308l10.74-1.74q.42-.067.635.113.225.188.276.503l.996 6.151q.014.086-.023.16-.036.075-.153.142-.106.066-.294.116-.176.058-.461.104-.267.044-.462.046-.184.01-.306-.02-.122-.028-.19-.086-.058-.059-.072-.144l-.713-4.4-3.009.487.603 3.724q.014.085-.032.161-.036.084-.142.15-.097.065-.285.115-.176.058-.443.1-.276.045-.461.046-.184.01-.306-.019-.113-.03-.173-.099-.058-.059-.072-.144l-.603-3.724-3.475.563.718 4.437q.014.086-.032.162-.036.084-.142.15-.107.066-.294.116-.177.058-.453.103z" aria-label="TIR CLUB DE SAINT LYE" font-family="Calibri" font-size="19.756" font-weight="700" style="-inkscape-font-specification:'Calibri Bold'" transform="translate(-.009)"/>
    </g>
    <g style="line-height:1.25;-inkscape-font-specification:'sans-serif Bold'">
      <path fill="#e92b24" d="M172.86 150.524q0 .254-.027.437-.017.175-.06.289-.044.105-.114.157-.062.053-.14.053h-2.833v9.118q0 .087-.06.157-.053.07-.185.114-.13.043-.358.07-.218.026-.55.026-.333 0-.56-.027-.219-.026-.35-.07-.131-.043-.192-.113-.053-.07-.053-.157v-9.118h-2.832q-.087 0-.149-.053-.06-.052-.105-.157-.043-.114-.07-.289-.017-.183-.017-.437 0-.262.018-.446.026-.183.07-.288.043-.114.104-.158.062-.052.149-.052h7.973q.078 0 .14.052.07.044.113.158.044.105.061.288.027.184.027.446zm8.794 8.655q0 .218-.017.376-.01.148-.035.262-.026.105-.07.184-.044.078-.14.183-.096.096-.376.254-.27.157-.673.306-.393.14-.91.236-.506.096-1.1.096-1.163 0-2.099-.358-.935-.359-1.59-1.067-.657-.717-1.006-1.783-.35-1.067-.35-2.483 0-1.443.385-2.562.384-1.119 1.075-1.88.69-.76 1.652-1.153.97-.394 2.133-.394.472 0 .91.08.437.078.804.209.376.122.673.288.297.167.41.289.123.114.167.192.044.079.07.201.026.123.035.289.017.166.017.41 0 .263-.017.447-.018.183-.061.297-.044.113-.105.166-.062.052-.14.052-.131 0-.332-.148-.201-.158-.525-.341-.315-.193-.76-.341-.438-.158-1.05-.158-.673 0-1.206.28-.524.271-.9.787-.368.507-.56 1.233-.192.725-.192 1.634 0 .997.2 1.731.21.726.587 1.198.384.472.917.708.542.227 1.216.227.612 0 1.057-.14.446-.148.761-.323.323-.175.525-.315.21-.14.323-.14.087 0 .14.036.052.035.087.14.035.104.053.297.017.183.017.498zm8.358-1.679q0 .892-.332 1.565-.333.673-.9 1.128-.57.446-1.33.673-.76.227-1.626.227-.585 0-1.093-.096-.498-.096-.882-.227-.385-.14-.647-.289-.254-.148-.368-.262-.113-.113-.166-.323-.043-.219-.043-.621 0-.271.017-.455.018-.183.053-.297.043-.113.105-.157.07-.053.157-.053.122 0 .34.149.228.14.578.315t.83.323q.49.14 1.128.14.42 0 .752-.096.332-.105.56-.289.235-.183.358-.454.122-.271.122-.603 0-.385-.21-.656-.21-.28-.55-.49-.333-.218-.76-.402-.43-.192-.884-.402-.454-.21-.883-.472-.428-.271-.77-.638-.331-.376-.541-.883-.21-.507-.21-1.215 0-.813.297-1.425.306-.62.813-1.023.516-.41 1.207-.612.7-.201 1.477-.201.402 0 .804.061.403.061.752.166.35.105.62.236.272.131.36.219.087.087.113.148.035.062.052.167.027.096.035.253.01.149.01.376 0 .253-.018.428-.009.175-.044.289-.026.113-.087.166-.053.052-.149.052t-.306-.122q-.21-.122-.515-.262-.306-.149-.709-.262-.402-.123-.883-.123-.375 0-.655.096-.28.088-.472.254-.184.157-.28.385-.087.227-.087.48 0 .376.2.656.21.271.551.49.35.21.787.402.437.183.892.393.454.21.892.48.437.263.778.64.34.366.55.873.21.499.21 1.18zm7.973 2.43q0 .263-.027.447-.017.174-.06.297-.045.113-.114.166-.062.052-.15.052h-5.183q-.289 0-.49-.166-.192-.175-.192-.56v-10.271q0-.088.052-.158.062-.07.193-.113.13-.044.35-.07.227-.026.559-.026.34 0 .56.026.218.026.349.07.131.043.184.113.06.07.06.158v9.1h3.559q.087 0 .148.053.07.043.114.157.044.105.061.289.027.174.027.437z" aria-label="TCSL" font-family="Calibri" font-size="17.904" font-weight="700" style="-inkscape-font-specification:'Calibri Bold'" transform="scale(.90758 1.10183)"/>
    </g>
    <path d="m259.885 156.013-.097-3.07c-2.543-.573-5.185-1.222-7.14-3.057-2.348-2.172-4.316-5.084-4.418-8.369-.19-1.447.058-3.723-1.824-4.104-1.198-.364-4.213-.083-2.949-2.093.724-1.303 1.112-2.758 1.768-4.073.961-1.862 3.798-1.515 4.922-.001 1.868 2.257 2.523 5.52 5.248 7.046 2.043 1.214 4.388.307 6.52-.092 2.55-.487 5.064.342 7.586.55 2.904-.053 4.706-2.79 7.328-3.624 1.122 1.02-.105 3.015-.327 4.341-1.006 3.193-2.204 6.475-4.732 8.818-1.713 1.893-4.005 3.412-5.032 5.82-.526 1.605-.332 3.317-.38 4.98h-6.375l-.098-3.072zm-16.449-32.253c-.334-1.403-.137-3.007-.924-4.257-1.418-1.154-3.416-1.004-5.135-1.287-1.625-.27-3.412-.14-4.616 1.116-1.26 1.761-2.857-.092-3.912-1.05-1.546-1.105.53-2.497 1.071-3.63 1.116-1.61 2.415-3.134 3.236-4.917-.266-1.625-1.414-2.982-1.62-4.61.634-1.552 2.442-.16 3.501.166.52.3 1.024.492 1.405-.105 1.667-1.39 3.38-2.97 5.57-3.418 2.912-.318 5.81.237 8.624.927 3.67.799 7.458 1.05 11.07 2.1 2.245.703 4.006 2.633 4.362 4.96.215 1.438.774 3.605-.897 4.363-1.04 1.306-1.971 2.72-3.25 3.83-1.49.991-2.098 2.67-2.11 4.392-.128 1.23-.254 2.46-.384 3.69h-3.85c.019-2.037.218-4.083.033-6.116-.813-1.29-3.04-.352-4.393-.586-1.361.125-3.861-.267-3.358 1.895-.199 1.509.417 3.34-.543 4.621-1.14.346-2.373.125-3.555.187l-.325-2.27zm-25.122-22.75c-.06-1.75.108-3.549-.322-5.261-1.618-1.22-3.837-1.51-5.395-2.891-3.463-2.707-4.965-7.22-4.936-11.48-.335-1.96-2.236-3.46-1.642-5.606.088-1.907.358-3.809.535-5.699-.46-.775-2.99-1.082-1.283-2.117 1.547-.603 2.14-3.147 3.856-1.792 1.921-.039 3.892.972 3.45 3.189.073 2.13-.228 4.31.228 6.406 1.545.905 3.504.555 5.23.883 6.6.894 12.382 4.904 16.736 9.738 1.198 1.545 2.754 3.095 3.046 5.093-.717 1.637-3.224.691-4.64 1.451-2.082.703-3.897 2.05-6.064 2.555-2.338.433-1.877 3.166-1.936 4.898v5.7h-6.863v-5.066zm-53.355-13.184v-4.628c-2.473-2.593-4.428-5.6-6.118-8.74-.876-1.792-3.55-2.862-5.099-1.246-1.37 1.264-3.786 4.662-5.589 2.198-1.153-1.928-.079-4.184.22-6.2.592-3.161 2.313-6.071 2.167-9.362.09-2.535-.238-5.918 2.482-7.275 4.506-2.82 11.355-.762 13.458 4.1.933 2.2-.488 4.529-.39 6.565 2.698 1.081 5.736 1.084 8.619 1.071 4.072-.035 8.012-1.763 12.116-1.071 4.6.648 8.902 3.858 10.596 8.178 1.113 3.011-.122 6.127-1.29 8.909-.873 3.29-.521 6.752-.965 10.11-.247.609.257 2.029-.563 2.019h-2.366c-.23-1.967-.367-4.063-1.745-5.637-1.312-1.716-2.534-3.556-4.178-4.978-1.966-.087-3.566 1.725-5.214 2.714-.822.793-1.318.897-1.233-.408-1.805-1.257-4.57-.504-6.753-.848-1.916-.079-4.646-.609-4.006 2.155-.118 2.332-.157 4.668-.23 7.002h-3.92v-4.628zm-3.29-25.793c.822-2.458-3.013-4.727-4.73-2.62-.95 1.423 2.084 1.2 2.569 2.453.6.528 1.59 1.026 2.162.167z"/>
    <g transform="matrix(2.84938 0 0 2.82817 -697.579 -612.79)">
      <path d="M279.43 241.044h11v11h-11z"/>
      <path fill="#fff" d="M281.18 242.794h7.5v7.5h-7.5z"/>
      <circle cx="284.93" cy="246.544" r=".75"/>
      <circle cx="284.93" cy="246.544" r="2.063" fill="none" stroke="#000" stroke-linecap="square" stroke-width=".373"/>
      <circle cx="284.93" cy="246.544" r="1.311" fill="none" stroke="#000" stroke-linecap="square" stroke-width=".377"/>
      <circle cx="284.93" cy="246.544" r="2.811" fill="none" stroke="#000" stroke-linecap="square" stroke-width=".379"/>
      <circle cx="284.93" cy="246.544" r="3.545" fill="none" stroke="#000" stroke-linecap="square" stroke-width=".379"/>
    </g>
    <g transform="matrix(2.65801 0 0 2.63824 -634.04 -563.403)">
      <path d="m266.093 248.994-1.63 4.845v7.268l2.023 9.854h2.954l2.023-9.854v-7.268l-1.614-4.845z"/>
      <rect width="5.767" height="8.265" x="265.08" y="253.823" fill="#fff" rx="2.883"/>
      <rect width="4.871" height="7.362" x="-270.399" y="254.274" fill="none" stroke="#000" stroke-linecap="square" stroke-width=".5" rx="2.476" transform="scale(-1 1)"/>
      <rect width="3.36" height="5.888" x="-269.643" y="255.012" fill="none" stroke="#000" stroke-linecap="square" stroke-width=".5" rx="1.715" transform="scale(-1 1)"/>
      <rect width="1.915" height="4.384" x="-268.92" y="255.763" fill="none" stroke="#000" stroke-linecap="square" stroke-width=".5" rx=".957" transform="scale(-1 1)"/>
      <rect width=".984" height="3.484" x="267.471" y="256.213" fill="#000003" rx=".492"/>
    </g>
    <g fill="#499f36" stroke="#499f36">
      <path stroke-width=".265" d="M310.397 313.42c-12.925-4.895-39.952-21.35-35.146-46.372-3.41 24.467 21.559 40.009 35.012 44.969z" transform="matrix(2.78238 0 0 2.65307 -705.65 -546.608)"/>
      <path stroke-width=".265" d="M275.318 276.937c3.618-5.425 4.496-2.339 7.416-9.287-7.383 3.666-4.807 4.046-7.416 9.287zm-.369-2.822c.302-7.067 2.99-2.1.947-11.747-3.363 3.959-2.012 5.99-.947 11.747zm2.011 8.735c-3.063-1.771-.745-3.922-7.564-8.602 2.15 6.127 2.57 7.179 7.564 8.602zm2.53 5.247c3.417-3.821 3.961-6.014 3.207-11.225-4.042 4.869-1.4 6.585-3.207 11.225zm7.918 10.411c-5.921-2.73-4.746-3.743-12.064-5.549 4.768 6.724 6.48 3.787 12.064 5.55zm6.252 4.742c-1.469-2.265 2.473-5.992-4.583-11.885 1.135 4.368-1.892 3.628 4.583 11.886zm9.2 5.765c-1.402-4.404 1.003-6.594-4.182-10.283 1.736 4.235-1.691 3.762 4.182 10.283zm-5.623-2.548c-5.335.1-6.959-3.654-11.908-3.524 4.956 2.72 3.707 7.246 11.908 3.524zm8.953 4.945c-3.33.033-4.286-2.72-9.97-.584 6.16 3.655 7.182.63 9.97.584z" transform="matrix(2.78238 0 0 2.65307 -705.65 -546.608)"/>
      <path stroke-width=".225" d="M314.405 313.339c11.465-3.982 35.439-17.365 31.176-37.718 3.025 19.9-19.123 32.542-31.057 36.576z" transform="matrix(2.78238 0 0 2.65307 -705.65 -546.608)"/>
      <path stroke-width=".265" d="M345.832 282.37c-3.752-6.762-.62-6.75-.735-10.09 3.708 4.267 1.533 6.986.735 10.09z" transform="matrix(2.78238 0 0 2.65307 -705.65 -546.608)"/>
      <path stroke-width=".265" d="M345.8 284.09c8.584-13.814-.25-9.315 6.402-16.223-.378 7.367 3.95 2.381-6.402 16.224zm-1.811 5.662c5.736-2.84 5.422-4.39 10.37-7.332-.746 6.862-5.377 5.909-10.37 7.332zm-4.134 6.049c-3.417-3.821-1.489-5.613-.735-10.824 4.042 4.869-1.072 6.184.735 10.824zm-3.642 3.997c5.922-2.73 2.943-3.142 10.26-4.948-4.768 6.724-5.88 4.321-10.26 4.948zm-5.449 4.408c-3.142-7.945 1.67-7.195 3.781-10.149-.6 4.703-3.52 4.163-3.781 10.15zm-9.267 5.63c-1.405-7.076 2.471-7.261 4.65-11.217.2 2.697-.848 5.432-4.65 11.217zm6.09-3.482c5.336.1 7.427-2.586 12.376-2.455-4.956 2.72-4.175 6.176-12.376 2.455zm-9.555 5.278c5.403.768 6.158-2.118 11.708-.784-6.76 5.726-9.32 1.232-11.708.784zm-8.092 1.143c-.113-2.758 5.092-3.034 5.056-.425-.042 3.072-4.98 2.266-5.056.425z" transform="matrix(2.78238 0 0 2.65307 -705.65 -546.608)"/>
      <path stroke-linecap="round" stroke-linejoin="round" d="M310.838 313.437c-1.955 3.334-3.468 2.11-4.583 5.055m8.268-5.292c.627 2.501 2.997 2.35 3.45 5.198" transform="matrix(2.78238 0 0 2.65307 -705.65 -546.608)"/>
    </g>
    <path fill="#fce432" d="M164.207 188.594v71.052c3.52-16.01 28.145-1.33 28.145-18.283v-52.769z"/>
    <path fill="#e92b24" d="M164.207 188.594v71.052c-3.52-16.01-28.146-1.33-28.146-18.283v-52.769z"/>
    <path fill="none" stroke="#000" stroke-width=".577" d="M48.428 165.223h20.41V184.5c0 6.4-8.578.596-10.204 6.679-1.659-6.082-10.206-.281-10.206-6.68z" transform="matrix(2.75791 0 0 2.7374 2.5 -263.685)"/>
    <path fill="none" stroke="#000" stroke-linejoin="round" stroke-width=".577" d="M58.634 191.179v-25.956" transform="matrix(2.75791 0 0 2.7374 2.5 -263.685)"/>
    <path fill="#fff" stroke="#000" stroke-linejoin="round" stroke-width=".577" d="M48.428 173.007h10.198v7.784H48.428z" transform="matrix(2.75791 0 0 2.7374 2.5 -263.685)"/>
    <path fill-rule="evenodd" d="M175.375 213.575c-.626.331-1.88-.12-2.106.72-.558.096-.916.237-.728.74-.439.67.621.706.647.782-.031.554-1.29.305-1.795.356-.454.082-.57-1.059-.783-.16.315 1.073 1.653.568 2.445.467.496.173-.655.56.155.799.278.313 1.192-.516.717.354-.21.607-2.155-.178-1.03.537.132.197-1.088.171-1.31.696-.318.758-1.621.012-2.195-.447-.911-.414-1.353-1.605-.317-2.06.584-.472-.648-1.857-.17-.676-.016.974-.838-.616-1.071.44.127-.642-.126-1.574-.929-1.352.585.172.88.837.2 1.057-.174.305.393 1.374-.01.513-.142-.683-1.5-.476-1.34-.164.632-.227.77.177.646.675.328.371.887.557.132.265-.669-.467-1.367 1.307-.594.427.605-.389.163.851 1.004.683.261.415.815 1.122 1.218 1.37.08.482.677 1.68.681.616-.053.243 1.059 1.953.932.86.245.049.777 1.311 1.444 1.424.822.38-.815 1.096-1.231 1.395-1.41.687-.475-1.268-1.276-1.657-1.128-.402.669.579-.368.796-.132.51-1.355.236-1.186.669.94-.42.389.59.745.911-.634.064-.922 1.959-.439.812.369-.786.582.4 1.046.07-.376.381.056 1.66.08.621.217-.624.773.66 1.082-.222.377-.372 1.142-.275 1.47-.662.65.192 1.42.312.686-.348.363.256 2.06.591 1.207-.102.378.137 2.008.137 1.092-.518.203.206 2.114.215 1.16-.348.647.002 1.29-.256.535-.78 1.366-.323 2.45-1.222 3.553-2.028.858-.586 1.788-1.262 2.892-1.118.012.05-1.32.707-1.35 1.376-.379.685-.291.848.238.326-.009.366-.108.891-.151 1.318-.025.326.48-.956.398-.406.29.674.124 1.57-.809 1.536-.728.756-1.706-.02-1.126-.832.086-.602-1.342-1.002-.522-.363.546.535-.632.176-.59.798-.223-.66-1.902-.243-.832.068.26.552.388.77-.237.926-.26.342-.335 1.001.042.351.604-.22.512.583.393.965.014.143.562-.665.595-.008.706.558.474-.78.98-.285.74.47 2.106-.192 2.55-.297-1.109-.502.768-.1 1.094-.621-1.223-.348.963-.585.623-.92-1.22-.206 1.355-.734.104-.896-1.12-.188-.115-2.324.388-1.607.25.393 1.543 1.603 1.595.948-.207-.607 1.065.78 1.105.236-.682-.63.864-.176 1.17-.524.981-.623 1.153 1.155 1.011 1.787-.489.926-.378-1.555-1.283-.622-.715.484.442.015.18.72.533.588-1.067.442-.744 1.314.007.461.508-.882.675-.094.395.403.812-.366.485.4-.04.412.395 1.157.223.344.076-.668.831-.146 1.003-.825.056.313.795 1.419.522.51-.226-.556.899-.777.245-1.498.59-.913-.385-1.752.06-2.728-.038-.874-.473.776-.345-.202.01-.6-.115-1.498-.366-.544-.016-.563-.411-1.875-.43-.705-.072.015-.533-1.758-.545-.483-.41 1.116-1.805.589-2.441-.008-.628-.393-.62-.525.117-.458 1.054-.005 2.558-.556 2.398-1.841-.203-1.347-1.784-1.83-2.972-1.652-1.277.074-2.471.679-3.745.706-.791-.334-.968-1.768-2.143-1.314-.533.206-.981-.011-1.407-.312-.182-.475 1.025-.295.177-.511-1.063.123-.353 1.834.28 2.213 1.339 1.14 3.216.721 4.753.293 1.317-.288 2.893-.802 4.077.112.975 1.093-.94 1.738-1.812 1.579-1.534-.119-3.054-.514-4.605-.345-1.553.051-3.056.468-4.542.88.188-.365-.63-2.32-.052-1.42.35.212-.082-1.31-.34-1.68-.315-.441.71-1.395-.285-1.536-.179-.224-.348-.621-.698-.582zm0-19.285c-.626.33-1.88-.122-2.106.719-.558.096-.916.237-.728.74-.439.67.621.706.647.782-.031.554-1.29.305-1.795.356-.454.083-.57-1.059-.783-.16.315 1.073 1.653.568 2.445.467.496.173-.655.56.155.799.278.313 1.192-.516.717.354-.21.607-2.155-.178-1.03.537.132.197-1.088.171-1.31.696-.318.758-1.621.012-2.195-.446-.911-.415-1.353-1.606-.317-2.06.584-.473-.648-1.858-.17-.677-.016.974-.838-.616-1.071.44.127-.642-.126-1.574-.929-1.352.585.172.88.837.2 1.057-.174.305.393 1.374-.01.513-.142-.683-1.5-.476-1.34-.164.632-.227.77.177.646.675.328.371.887.557.132.265-.669-.467-1.367 1.307-.594.427.605-.388.163.851 1.004.683.261.415.815 1.122 1.218 1.37.08.482.677 1.68.681.616-.053.243 1.059 1.953.932.86.245.049.777 1.311 1.444 1.424.822.38-.815 1.096-1.231 1.395-1.41.687-.475-1.268-1.276-1.657-1.128-.402.669.579-.368.796-.132.51-1.355.237-1.186.669.94-.42.389.59.745.911-.634.064-.922 1.96-.439.812.369-.786.582.4 1.046.071-.376.38.056 1.66.08.62.217-.624.773.66 1.082-.222.377-.372 1.142-.275 1.47-.662.65.192 1.42.312.686-.348.363.256 2.06.591 1.207-.102.378.137 2.008.137 1.092-.517.203.205 2.114.214 1.16-.349.647.002 1.29-.256.535-.78 1.366-.322 2.45-1.222 3.553-2.028.858-.586 1.788-1.262 2.892-1.118.012.05-1.32.707-1.35 1.376-.379.685-.291.848.238.327-.009.365-.108.89-.151 1.317-.025.326.48-.956.398-.406.29.674.124 1.57-.809 1.536-.728.756-1.706-.02-1.126-.832.086-.602-1.342-1.002-.522-.363.546.535-.632.176-.59.798-.223-.66-1.902-.243-.832.068.26.552.388.77-.237.926-.26.342-.335 1.001.042.351.604-.22.512.583.393.965.014.144.562-.665.595-.008.706.558.474-.78.98-.285.74.47 2.106-.192 2.55-.297-1.109-.502.768-.1 1.094-.621-1.223-.348.963-.585.623-.92-1.22-.206 1.355-.734.104-.896-1.12-.188-.115-2.324.388-1.607.25.393 1.543 1.603 1.595.948-.207-.607 1.065.78 1.105.236-.682-.63.864-.176 1.17-.524.981-.623 1.153 1.155 1.011 1.787-.489.926-.378-1.555-1.283-.622-.715.484.442.015.18.72.533.588-1.067.442-.744 1.314.007.461.508-.882.675-.094.395.403.812-.366.485.4-.04.412.395 1.157.223.344.076-.668.831-.146 1.003-.825.056.313.795 1.419.522.51-.226-.556.899-.777.245-1.497.59-.913-.385-1.753.06-2.73-.038-.873-.473.777-.345-.2.01-.601-.115-1.499-.366-.545-.016-.563-.411-1.875-.43-.705-.072.015-.533-1.758-.545-.483-.41 1.116-1.805.589-2.441-.008-.628-.393-.62-.525.117-.457 1.054-.006 2.558-.557 2.398-1.842-.203-1.347-1.784-1.83-2.972-1.652-1.277.074-2.471.679-3.745.706-.791-.334-.968-1.768-2.143-1.314-.533.206-.981-.011-1.407-.312-.182-.475 1.025-.295.177-.511-1.063.123-.353 1.834.28 2.213 1.339 1.14 3.216.721 4.753.293 1.317-.288 2.893-.802 4.077.112.975 1.093-.94 1.738-1.812 1.579-1.534-.119-3.054-.514-4.605-.345-1.553.051-3.056.468-4.542.88.188-.365-.63-2.32-.052-1.42.35.212-.082-1.31-.34-1.68-.315-.441.71-1.395-.285-1.536-.179-.224-.348-.621-.698-.582zm0 38.49c-.626.331-1.88-.121-2.106.72-.558.095-.916.237-.728.74-.439.669.621.705.647.781-.031.555-1.29.305-1.795.357-.454.082-.57-1.06-.783-.161.315 1.073 1.653.569 2.445.467.496.174-.655.56.155.8.278.313 1.192-.516.717.354-.21.607-2.155-.178-1.03.536.132.197-1.088.172-1.31.697-.318.758-1.621.011-2.195-.447-.911-.415-1.353-1.606-.317-2.06.584-.473-.648-1.858-.17-.676-.016.973-.838-.616-1.071.44.127-.643-.126-1.574-.929-1.352.585.172.88.836.2 1.056-.174.306.393 1.375-.01.514-.142-.683-1.5-.477-1.34-.164.632-.227.77.176.646.674.328.372.887.557.132.266-.669-.467-1.367 1.307-.594.426.605-.388.163.852 1.004.684.261.415.815 1.122 1.218 1.369.08.483.677 1.68.681.617-.053.243 1.059 1.953.932.86.245.048.777 1.31 1.444 1.424.822.379-.815 1.096-1.231 1.395-1.41.687-.475-1.269-1.276-1.657-1.128-.402.669.579-.368.796-.132.509-1.355.236-1.186.668.94-.42.389.59.745.912-.634.064-.922 1.959-.439.812.369-.786.582.4 1.046.07-.376.38.056 1.66.08.621.217-.624.773.66 1.082-.223.377-.372 1.142-.274 1.47-.661.65.192 1.42.311.686-.349.363.256 2.06.592 1.207-.101.378.137 2.008.137 1.092-.518.203.205 2.114.215 1.16-.348.647.001 1.29-.256.535-.78 1.366-.323 2.45-1.222 3.553-2.029.858-.586 1.788-1.262 2.892-1.117.012.05-1.32.707-1.35 1.376-.379.684-.291.848.238.326-.009.366-.108.891-.151 1.318-.025.326.48-.957.398-.406.29.674.124 1.57-.809 1.535-.728.756-1.706-.02-1.126-.831.086-.602-1.342-1.003-.522-.364.546.536-.632.177-.59.798-.223-.66-1.902-.242-.832.069.26.551.388.769-.237.926-.26.341-.335 1 .042.35.604-.22.512.583.393.966.014.143.562-.665.595-.008.706.558.474-.78.98-.286.74.471 2.106-.191 2.55-.296-1.109-.502.768-.101 1.094-.622-1.223-.347.963-.584.623-.92-1.22-.206 1.355-.733.104-.895-1.12-.188-.115-2.325.388-1.607.25.393 1.543 1.602 1.595.948-.207-.607 1.065.78 1.105.236-.682-.63.864-.177 1.17-.524.981-.623 1.153 1.154 1.011 1.787-.489.926-.378-1.555-1.283-.622-.715.484.442.014.18.72.533.588-1.067.441-.744 1.314.007.461.508-.882.675-.094.395.402.812-.367.485.399-.04.412.395 1.158.223.345.076-.669.831-.146 1.003-.826.056.314.795 1.42.522.511-.226-.556.899-.778.245-1.498.59-.913-.385-1.753.06-2.729-.038-.873-.473.776-.345-.201.01-.6-.115-1.498-.366-.544-.016-.563-.411-1.876-.43-.705-.072.015-.533-1.759-.545-.483-.41 1.116-1.805.588-2.441-.008-.628-.393-.62-.525.117-.458 1.054-.005 2.558-.556 2.398-1.842-.203-1.347-1.784-1.83-2.972-1.651-1.277.074-2.471.679-3.745.706-.791-.334-.968-1.768-2.143-1.315-.533.207-.981-.01-1.407-.311-.182-.475 1.025-.295.177-.512-1.063.124-.353 1.835.28 2.213 1.339 1.141 3.216.722 4.753.294 1.317-.289 2.893-.803 4.077.111.975 1.094-.94 1.738-1.812 1.58-1.534-.12-3.054-.515-4.605-.346-1.553.052-3.056.469-4.542.88.188-.365-.63-2.32-.052-1.42.35.213-.082-1.31-.34-1.68-.315-.44.71-1.394-.285-1.536-.179-.224-.348-.62-.698-.581z"/>
    <path fill="url(#d)" d="m1769.121-478.638-6.415 4.076 1.404 1.804c1.572-1.26 2.622-.621 2.138.534l-42.485 45.503-136.363 94.977-.09-.12-6.661-7.228-1.937 1.323-1.464-1.417-2.222 2.976-21.544 14.174-3.247-.966-4.734 3.257v1.657l-6.749 5.08-3.413-1.012-8.67 7.06-4.37-2.036c3.969 5.796 14.748 15.149 12.52 17.529-2.227 2.38-6.914-1.024-10.063-1.465l-13.04 13.04.378 3.78-17.954 3.78c-1.08 5.058-4.516 7.605-7.094 8.477-15.958-3.856-21.275 1.548-21.49 4.847 8.165-3.958 19.173-5.34 24.048 4.441 5.54-.708 10.519 1.677 15.308 5.102-3.612 5.196-12.76 13.372-17.55 18.449 2.37 2.48 57.245 32.176 59.696 34.173 5.363-1.952 7.21-6.045 6.999-9.807 19.396.882 31.392 16.18 35.793 36.574-1.376-7.451-2.062-22.077.669-26.192 15.58-23.478 35.794-36.94 34.713-61.317l-2.61-1.038c5.647 25.578-37.707 55.503-36.848 70.306-3.906-10.063-17.368-16.519-19.87-18.976-4.61-4.528-6.11-8.18-6.128-12.131a78.799 78.799 0 0 1 2.779-4.366c5.591.74 10.645 2.27 12.194 5.339 3.068 6.078 3.228 18.903 12.896 19.11-.089-2.506-8.346-2.048-8.592-17.27-.13-7.963-3.14-16.82-6.004-20.112 4.317-4.617 9.218-9.243 14.64-13.875 0-3.678 1.531-46.729 2.028-52.444l208.47-155.284c1.599-7.052-1.25-11.817-8.47-14.333-3.522-.592-4.449-2.888-6.097-4.71-4.833 1.699-9.666-.609-14.499-1.27z" transform="matrix(.27253 0 0 .2705 -331.025 269.354)"/>
    <path fill="url(#e)" d="m1594.114-333.186 194.847-133.237c1.015.26 1.897.265 2.646 2.835L1596.004-330.54c-.014-1.092-.258-2.067-1.89-2.646z" transform="matrix(.27253 0 0 .2705 -331.025 269.354)"/>
    <path fill="url(#f)" d="M1569.168-304.271s109.56-74.791 116.417-79.47c2.483-1.694 9.527-2.093 11.616.362 3.974 4.672 1.94 24.09-.655 25.908-31.465 22.04-61.122 76.62-71.201 102.715-.167.807-2.54.369-2.767-.956-2.452-14.354-27.015-1.536-34.89 5.114-2.416-18.618-5.279-37.15-18.52-53.673z" transform="matrix(.27253 0 0 .2705 -331.025 269.354)"/>
    <path fill="url(#g)" d="M1455.208-207.698c0 8.425 7.866 15.763 9.639 24.569 3.121 15.509-1.062 31.826 1.512 47.436 1.692 10.264 7.32 19.606 9.071 29.86 1.954 11.436 1.1 23.179 1.512 34.773.616 17.296 26.939 16.302 41.766 15.497 13.363-.724 33.292-3.23 35.908-17.953 1.72-9.682-17.016-14.434-18.143-28.727-.556-7.056 8.359-12.81 7.56-19.843-.882-7.76-12.295-12.846-13.04-19.466-.781-6.931 8.012-8.348 7.181-19.655-.5-6.8-10.79-11.457-9.45-18.143 1.936-9.648 22.68-18.899 22.68-18.899s-7.492-34.416-36.098-40.632c-17.528-3.809-60.104 18.442-60.098 31.183z" transform="matrix(.27253 0 0 .2705 -331.025 269.354)"/>
    <path fill="url(#h)" d="M676.653-29.236c-2.35 1.34-3.897 3.541-4.484 6.771l7.48 4.886-1.516 2.31-9.966-6.216c-5.43 2.132-7.796 6.511-7.884 12.562l31.604 22.049c.894-.071 1.774.009 2.728-.783l362.703 237.331 5.24-6.596c-.521-4.257-.53-8.096 3.44-8.92 0 0 2.32 1.876 3.675 1.771 1.43-.11 3.24-2.54 3.24-2.54 1.31-.32 2.552.115 2.707 1.838 0 0-1.392 2.102-1.17 2.84.202.667 5.98 3.708 5.98 3.708.962-.135 1.86-.151 1.772 1.637 1.108-.287 1.709.165 1.837 1.304 1.057-.47 1.825-.36 1.905 1.035.662-.657 1.263-.821 1.837-.768.84.363 2.293 3.263 3.742 6.147 2.957-3.577 5.897-7.256 8.419-13.364-2.947.51-5.595.044-8.453-.334-.76-.785-.693-1.195-.4-1.737-1.601.157-1.874-.258-1.872-1.437-1.173.256-1.995-.008-2.105-1.436-1.457.117-2.507.761-2.137-1.47l-3.843-2.64c-.44-.547-.974-.24-1.503.1l-1.77 1.838c-.852.93-2.897.09-2.373-1.57 5.24-7.79-5.137-7.698 3.105-15.919l-3.105-2.39-2.004 2.406-3.105.057-1.706 1.68-16.337 2.225-1.97-1.957-2.941.936-9.622-5.88-1.603 1.336-3.742-1.87-4.01 3.741-24.825-16.17c-.904-.66 1.466-4.002-.078-5.11L701.437 1.787c.31-.935.12-1.745-.061-2.558l-18.768-11.706 1.56-2.214 7.97 5.01c2.57-1.404 4.387-3.601 4.694-7.393z" transform="matrix(.2787 0 0 .27663 -47.688 126.719)"/>
    <path fill="url(#i)" d="M1000.517 195.003c-.21 1.383-.88 2.056-1.572 2.539L697.195 7.105c.678-.656 1.303-1.4 1.607-2.493z" transform="matrix(.2787 0 0 .27663 -47.688 126.719)"/>
    <path d="m236.28 196.97-1.186 1.307-.197-.562-.369.013c.305 1.419-.822 2.166-1.725 3.02.53-.312 1.103-.457 1.554-1.086l.698-.013c-.114-.242-.28-.47-.264-.745l1.804-1.477z"/>
    <path d="M234.345 202.215s-7.407-4.38-7.71-5.305c-.238-.73 1.006-2.92 1.006-2.92l-.484-.185s-1.12 2.24-.95 3.335c.105.683 7.896 5.481 7.896 5.481zm24.601 6.765-1.341 3.216 13.222 7.504 1.713-4.51z"/>
    <path fill="url(#j)" d="M756.141 58.964 745.37 72.95c-1.504 1.953-1.213 4.426.378 5.67l229.998 179.917s4.727-8.646 14.364-16.064c2.16-1.664 5.73-2.247 8.126-.945 8.29 4.504 22.3 15.686 22.3 15.686s-21.356 34.05-27.403 44.979c-1.72 3.11-1.711 8.731 1.323 10.583 46.827 28.578 49.993 65.238 123.861 122.437l73.299-85.059-13.364-17.372s-13.382 6.63-19.243 3.741c-20.523-10.117-72.663-35.192-100.108-51.528-10.231-6.09 1-23.296-1.134-35.908L767.792 55.556c-3.846 2.942-7.628 3.562-11.65 3.408z" transform="matrix(.2787 0 0 .27663 -47.688 126.719)"/>
    <path fill="url(#k)" d="m1191.615 350.153 8.27 8.357c-20.979 21.464-40.37 26.773-67.07 106.435-9.766 1.358-16.066-5.239-19.777-17.773 11.076-35.667 47.842-74.637 78.577-97.019z" transform="matrix(.2787 0 0 .27663 -47.688 126.719)"/>
    <path fill="url(#l)" d="M1159.008 332.113c5.476-5.643 8.243-12.978 8.018-22.184l-76.305-38.62c-5.825 5.22-9.229 12.465-8.286 22.317z" transform="matrix(.2787 0 0 .27663 -47.688 126.719)"/>
  </g>
</svg>
